<?xml version="1.0" standalone="no"?>
<!DOCTYPE svg PUBLIC "-//W3C//DTD SVG 20010904//EN"
 "http://www.w3.org/TR/2001/REC-SVG-20010904/DTD/svg10.dtd">
<svg version="1.0" xmlns="http://www.w3.org/2000/svg"
 width="500.000000pt" height="500.000000pt" viewBox="0 0 500.000000 500.000000"
 preserveAspectRatio="xMidYMid meet">
<metadata>
Created by potrace 1.11, written by Peter Selinger 2001-2013
</metadata>
<g transform="translate(0.000000,500.000000) scale(0.100000,-0.100000)"
fill="#000000" stroke="none">
<path d="M2336 4475 c-20 -7 -39 -15 -40 -17 -40 -60 -50 -132 -25 -183 44
-89 191 -98 246 -16 40 60 24 170 -30 205 -32 22 -104 27 -151 11z"/>
<path d="M1254 4456 c-38 -17 -64 -69 -64 -131 0 -89 49 -137 141 -137 91 1
139 48 139 137 0 66 -21 108 -63 128 -42 20 -110 21 -153 3z"/>
<path d="M1624 4463 c-40 -8 -82 -74 -79 -123 7 -99 35 -137 111 -149 62 -9
129 11 151 46 9 14 20 48 23 75 15 118 -66 179 -206 151z"/>
<path d="M1964 4451 c-42 -25 -57 -68 -52 -141 6 -77 32 -107 104 -118 92 -15
158 26 170 103 17 113 -34 175 -144 175 -28 0 -59 -8 -78 -19z"/>
<path d="M2725 4460 c-43 -17 -67 -56 -72 -117 -9 -99 33 -152 124 -158 99 -7
153 42 153 139 0 63 -22 111 -59 130 -32 17 -113 20 -146 6z"/>
<path d="M3114 4449 c-103 -28 -121 -214 -24 -264 41 -21 128 -19 166 4 51 31
69 145 33 212 -21 41 -111 65 -175 48z"/>
<path d="M3442 4290 c-18 -4 -42 -16 -52 -25 -26 -23 -43 -87 -36 -134 3 -20
5 -39 6 -42 1 -17 44 -53 77 -64 69 -24 148 -3 177 47 36 60 16 181 -34 208
-27 14 -97 19 -138 10z"/>
<path d="M2588 4166 c-18 -9 -23 -20 -23 -51 0 -33 4 -42 28 -53 41 -20 81 2
85 46 2 18 -2 39 -8 47 -15 19 -56 24 -82 11z"/>
<path d="M2292 4163 c-55 -11 -49 -102 9 -116 60 -15 98 72 47 107 -12 9 -25
15 -28 15 -3 -1 -15 -4 -28 -6z"/>
<path d="M2900 4110 c-37 -37 -10 -100 41 -100 56 0 82 62 46 108 -15 19 -65
14 -87 -8z"/>
<path d="M1291 4108 c-24 -4 -50 -13 -59 -20 -40 -34 -55 -143 -27 -198 20
-40 63 -60 125 -60 95 0 140 45 140 140 0 107 -66 158 -179 138z"/>
<path d="M1643 4108 c-49 -10 -92 -55 -94 -96 -6 -94 3 -125 44 -156 37 -28
120 -37 169 -17 57 22 87 129 59 204 -21 54 -98 82 -178 65z"/>
<path d="M2001 4110 c-56 -13 -84 -50 -89 -119 -6 -81 2 -105 43 -137 63 -48
182 -30 215 32 21 39 19 142 -3 175 -28 41 -102 63 -166 49z"/>
<path d="M3133 4079 c-32 -12 -46 -38 -49 -90 -2 -39 2 -55 19 -74 45 -51 155
-37 178 22 38 100 -46 180 -148 142z"/>
<path d="M3721 4017 c-49 -18 -73 -55 -77 -122 -4 -67 13 -107 57 -134 37 -22
121 -25 161 -5 79 40 82 205 6 253 -30 18 -108 23 -147 8z"/>
<path d="M2651 3993 c-49 -24 -65 -56 -65 -127 0 -71 21 -110 68 -130 39 -16
115 -12 153 8 77 39 76 203 0 243 -43 22 -116 25 -156 6z"/>
<path d="M2315 3992 c-47 -10 -78 -57 -81 -122 -4 -85 41 -132 129 -133 91 -1
130 37 130 128 0 59 -18 96 -55 116 -23 12 -90 18 -123 11z"/>
<path d="M3002 3850 c-67 -15 -104 -77 -96 -160 8 -82 53 -121 138 -121 107 0
152 49 143 159 -4 47 -11 69 -27 87 -31 33 -98 48 -158 35z"/>
<path d="M3416 3850 c-72 -13 -103 -65 -97 -164 3 -64 55 -116 118 -119 109
-5 166 42 164 136 0 62 -11 95 -37 118 -32 28 -89 39 -148 29z"/>
<path d="M1310 3750 c-61 -8 -89 -25 -106 -65 -31 -76 -8 -176 47 -206 28 -15
115 -15 151 -1 40 16 68 68 68 125 0 108 -57 161 -160 147z"/>
<path d="M1615 3741 c-65 -27 -92 -150 -49 -218 31 -49 103 -70 174 -51 65 18
91 57 92 139 0 57 -23 104 -62 124 -31 16 -122 19 -155 6z"/>
<path d="M1980 3743 c-50 -18 -73 -65 -71 -143 3 -87 44 -131 128 -133 102 -3
147 40 148 139 0 72 -16 108 -60 129 -32 14 -114 19 -145 8z"/>
<path d="M3859 3647 c-23 -11 -42 -30 -50 -50 -17 -39 -16 -124 0 -155 32 -59
140 -81 211 -44 73 39 84 176 20 235 -17 15 -38 28 -48 28 -73 5 -100 3 -133
-14z"/>
<path d="M3170 3537 c-66 -17 -93 -59 -91 -141 3 -93 46 -131 145 -130 99 0
141 44 139 146 -1 100 -84 154 -193 125z"/>
<path d="M3532 3482 c-54 -18 -83 -72 -76 -145 7 -93 62 -134 164 -124 45 5
60 12 83 37 27 30 31 46 29 127 0 42 -23 86 -52 99 -36 16 -108 20 -148 6z"/>
<path d="M1251 3373 c-92 -46 -79 -226 19 -260 36 -12 112 -8 143 9 52 27 73
130 42 204 -25 60 -129 84 -204 47z"/>
<path d="M1608 3374 c-37 -20 -61 -69 -61 -125 -1 -99 45 -143 146 -143 94 1
137 45 137 142 0 64 -20 106 -60 127 -37 19 -127 19 -162 -1z"/>
<path d="M1967 3374 c-69 -37 -81 -175 -21 -235 27 -27 38 -30 90 -31 112 -2
149 34 149 142 0 74 -20 112 -69 130 -42 15 -116 12 -149 -6z"/>
<path d="M3920 3283 c-61 -20 -93 -73 -89 -147 5 -84 49 -126 132 -128 104 -2
149 42 148 144 0 67 -24 108 -76 128 -27 10 -89 12 -115 3z"/>
<path d="M3176 3180 c-63 -20 -94 -82 -82 -165 11 -68 47 -104 113 -112 79 -9
136 16 157 68 30 74 13 161 -37 194 -30 19 -112 28 -151 15z"/>
<path d="M3513 3080 c-40 -24 -54 -49 -58 -108 -6 -96 37 -147 128 -151 103
-4 151 40 151 140 0 65 -20 103 -65 126 -37 20 -119 16 -156 -7z"/>
<path d="M1253 3014 c-40 -20 -63 -68 -63 -131 0 -83 42 -131 121 -139 97 -9
154 37 158 130 2 66 -18 115 -57 137 -37 22 -120 23 -159 3z"/>
<path d="M1630 3023 c-67 -25 -98 -97 -79 -182 14 -63 48 -90 123 -97 98 -10
155 43 157 144 2 60 -22 106 -67 127 -31 15 -104 19 -134 8z"/>
<path d="M1973 3015 c-43 -18 -66 -67 -64 -133 3 -101 42 -137 143 -136 94 1
136 48 137 150 1 47 -30 101 -69 121 -33 17 -107 16 -147 -2z"/>
<path d="M3875 2923 c-62 -13 -95 -59 -95 -132 0 -60 23 -107 62 -127 37 -19
108 -22 150 -5 88 34 91 215 5 254 -32 14 -85 19 -122 10z"/>
<path d="M3019 2857 c-66 -16 -99 -71 -93 -156 6 -81 54 -124 138 -124 64 0
120 30 132 71 11 40 12 104 2 133 -21 61 -102 95 -179 76z"/>
<path d="M3375 2773 c-72 -15 -102 -50 -108 -125 -6 -68 18 -117 66 -138 48
-22 127 -19 164 6 78 50 59 230 -25 248 -47 11 -76 14 -97 9z"/>
<path d="M2670 2698 c-42 -17 -64 -56 -68 -123 -5 -93 34 -143 119 -151 96 -9
150 34 157 125 5 74 -16 123 -63 145 -36 18 -106 19 -145 4z"/>
<path d="M1260 2664 c-46 -19 -61 -44 -67 -114 -8 -80 14 -124 73 -146 60 -23
129 -13 166 24 49 48 53 148 8 208 -31 42 -116 55 -180 28z"/>
<path d="M1612 2664 c-41 -21 -63 -62 -65 -123 -3 -88 34 -136 114 -147 106
-15 169 38 169 142 0 96 -41 138 -140 142 -26 1 -59 -5 -78 -14z"/>
<path d="M1972 2663 c-44 -21 -65 -64 -63 -130 2 -102 42 -139 148 -137 47 1
68 6 84 20 67 59 63 195 -6 240 -37 24 -121 27 -163 7z"/>
<path d="M2312 2665 c-61 -27 -81 -142 -34 -204 39 -53 150 -58 199 -8 52 52
38 179 -24 210 -38 19 -101 20 -141 2z"/>
<path d="M3716 2619 c-60 -9 -93 -39 -104 -93 -18 -94 17 -169 87 -183 74 -15
127 -4 162 33 19 20 24 39 27 92 3 57 0 72 -20 102 -29 42 -82 59 -152 49z"/>
<path d="M3032 2492 c-46 -40 -37 -147 14 -171 49 -22 112 -10 141 28 19 25
15 102 -6 130 -26 34 -116 42 -149 13z"/>
<path d="M2786 2364 c-47 -47 18 -116 73 -78 41 29 17 94 -34 94 -13 0 -31 -7
-39 -16z"/>
<path d="M2240 2362 c-22 -7 -30 -23 -30 -58 0 -25 6 -34 29 -44 28 -11 69 -1
72 18 6 41 4 64 -5 71 -16 12 -49 19 -66 13z"/>
<path d="M2543 2357 c-26 -11 -33 -33 -21 -67 12 -32 27 -41 58 -33 30 7 40
20 40 54 0 40 -39 64 -77 46z"/>
<path d="M3413 2357 c-49 -9 -92 -54 -94 -95 -7 -124 26 -171 127 -178 93 -6
150 36 154 116 4 71 -1 90 -28 121 -33 37 -91 50 -159 36z"/>
<path d="M1265 2320 c-11 -4 -31 -20 -44 -34 -33 -35 -41 -127 -17 -178 23
-47 56 -63 134 -63 61 0 65 2 98 38 31 33 34 43 34 94 0 69 -14 100 -57 129
-33 22 -108 29 -148 14z"/>
<path d="M1635 2323 c-80 -16 -116 -142 -66 -228 30 -53 135 -72 201 -37 65
35 84 167 32 225 -34 39 -99 54 -167 40z"/>
<path d="M1970 2312 c-42 -20 -62 -63 -61 -129 0 -69 25 -114 71 -130 82 -28
164 -5 193 54 32 67 14 165 -38 199 -35 23 -123 26 -165 6z"/>
<path d="M3082 2255 c-65 -20 -87 -50 -91 -127 -3 -50 14 -91 49 -123 32 -29
158 -29 190 0 57 50 63 166 12 217 -35 36 -103 49 -160 33z"/>
<path d="M2344 2243 c-12 -2 -34 -17 -50 -34 -23 -24 -29 -40 -32 -93 -5 -79
14 -121 66 -143 47 -20 130 -13 164 13 66 49 63 194 -6 239 -25 16 -99 26
-142 18z"/>
<path d="M2673 2210 c-43 -26 -56 -54 -57 -121 -1 -67 14 -99 57 -124 37 -22
129 -25 165 -6 85 45 82 221 -4 257 -48 20 -123 18 -161 -6z"/>
<path d="M1265 1965 c-50 -21 -68 -50 -73 -114 -8 -107 39 -161 139 -161 90 0
139 52 139 147 0 56 -15 88 -52 116 -32 24 -111 30 -153 12z"/>
<path d="M1626 1966 c-38 -14 -45 -20 -68 -60 -17 -30 -14 -117 6 -154 43 -82
209 -83 251 -3 19 38 22 105 6 152 -20 63 -115 94 -195 65z"/>
<path d="M1985 1967 c-54 -19 -76 -59 -77 -138 0 -57 23 -104 62 -124 38 -20
113 -19 155 1 79 37 87 200 12 248 -30 20 -112 27 -152 13z"/>
<path d="M1271 1617 c-46 -16 -73 -55 -79 -115 -10 -104 37 -162 131 -162 107
0 154 53 144 162 -5 58 -22 89 -58 108 -28 15 -103 19 -138 7z"/>
<path d="M1627 1615 c-60 -21 -90 -77 -81 -151 10 -84 56 -124 144 -124 94 0
138 42 141 132 3 92 -37 143 -121 152 -25 2 -62 -1 -83 -9z"/>
<path d="M1984 1615 c-50 -21 -68 -50 -72 -118 -2 -34 1 -74 7 -89 15 -41 66
-68 126 -68 93 0 139 45 142 139 2 68 -21 115 -65 132 -41 16 -106 18 -138 4z"/>
<path d="M1280 1264 c-66 -24 -90 -60 -90 -134 0 -91 47 -140 135 -140 67 0
113 22 130 64 31 73 13 164 -37 195 -22 14 -114 24 -138 15z"/>
<path d="M1610 1253 c-54 -28 -77 -96 -58 -172 16 -61 47 -84 122 -89 106 -7
157 37 158 137 0 58 -20 100 -59 122 -40 23 -120 24 -163 2z"/>
<path d="M1967 1254 c-70 -38 -80 -180 -17 -236 40 -37 129 -41 182 -10 39 23
53 57 53 128 0 67 -14 93 -67 120 -35 18 -116 17 -151 -2z"/>
<path d="M1253 904 c-83 -41 -83 -213 0 -253 41 -19 116 -17 155 3 75 39 85
195 16 241 -36 23 -131 28 -171 9z"/>
<path d="M1609 901 c-44 -23 -61 -60 -61 -128 0 -90 51 -138 145 -135 89 2
137 49 139 136 1 57 -17 100 -49 121 -38 25 -132 28 -174 6z"/>
<path d="M1982 909 c-46 -14 -72 -60 -72 -129 0 -97 40 -140 131 -142 58 -2
105 18 128 53 38 61 16 184 -37 209 -34 16 -107 21 -150 9z"/>
</g>
</svg>
